<?xml version="1.0" encoding="utf-8"?>
<!-- Generator: Adobe Illustrator 25.3.1, SVG Export Plug-In . SVG Version: 6.00 Build 0)  -->
<svg version="1.1"
	 id="Livello_1" xmlns:cc="http://creativecommons.org/ns#" xmlns:dc="http://purl.org/dc/elements/1.1/" xmlns:inkscape="http://www.inkscape.org/namespaces/inkscape" xmlns:rdf="http://www.w3.org/1999/02/22-rdf-syntax-ns#" xmlns:sodipodi="http://sodipodi.sourceforge.net/DTD/sodipodi-0.dtd" xmlns:svg="http://www.w3.org/2000/svg"
	 xmlns="http://www.w3.org/2000/svg" xmlns:xlink="http://www.w3.org/1999/xlink" x="0px" y="0px" viewBox="0 0 100 100"
	 style="enable-background:new 0 0 100 100;" xml:space="preserve">
<style type="text/css">
	.st0{fill:#494949;}
</style>
<g transform="translate(0,-952.36218)">
	<path class="st0" d="M49.2,972.7c-6.3,6.3-8,15.6-5,23.4l-29.6,29.6l-1.3,12.8l16.9-2.9l0.7-7.8l7.8-0.7l0.7-7.8l7.8-0.7l9.8-9.8
		c7.9,3,17.1,1.3,23.4-5c8.6-8.6,8.6-22.5,0-31.1S57.8,964.1,49.2,972.7L49.2,972.7z M65.5,979c2.3-2.3,6.1-2.3,8.5,0
		c2.3,2.3,2.3,6.1,0,8.5s-6.1,2.3-8.5,0S63.1,981.4,65.5,979z"/>
</g>
</svg>
